<svg width="187" height="187" viewBox="0 0 187 187" fill="none" xmlns="http://www.w3.org/2000/svg">
<rect width="186.445" height="186.445" rx="10" fill="url(#paint0_linear_2097_455)"/>
<path d="M111.271 126.888L149.45 104.845" stroke="#F5F9FF" stroke-width="3"/>
<path d="M132.018 49.4581L69.2937 85.6718M69.2937 85.6718L60.2685 76.3378L27.5429 95.2319M69.2937 85.6718L55.658 93.5444M69.2937 85.6718L81.4679 100.46M81.4679 100.46L95.2166 117.976L147.032 88.0598L136.319 50.6107M81.4679 100.46L125.102 75.2679M81.4679 100.46L54.1966 116.205" stroke="#F5F9FF" stroke-width="3"/>
<path d="M106.145 124.307C108.439 122.982 111.374 123.769 112.699 126.063C114.023 128.358 113.238 131.293 110.943 132.618C108.648 133.943 105.713 133.156 104.388 130.861C103.064 128.566 103.85 125.632 106.145 124.307ZM149.779 99.1149C152.074 97.7903 155.008 98.5765 156.333 100.871C157.658 103.166 156.872 106.101 154.577 107.426C152.283 108.751 149.347 107.964 148.022 105.669C146.697 103.375 147.484 100.44 149.779 99.1149ZM49.071 113.625C51.3657 112.3 54.3 113.086 55.625 115.381C56.9498 117.676 56.1634 120.61 53.8688 121.935C51.5739 123.26 48.6389 122.474 47.314 120.179C45.9892 117.884 46.7762 114.95 49.071 113.625ZM50.5319 90.9638C52.8268 89.6389 55.7614 90.4259 57.0864 92.7208C58.411 95.0156 57.625 97.9499 55.3302 99.2748C53.0355 100.6 50.1013 99.8133 48.7763 97.5187C47.4513 95.2238 48.237 92.2888 50.5319 90.9638ZM132.346 43.7285C134.641 42.4035 137.575 43.1906 138.9 45.4855C140.225 47.7803 139.439 50.7146 137.144 52.0394C134.85 53.3643 131.915 52.5779 130.59 50.2833C129.265 47.9884 130.051 45.0534 132.346 43.7285ZM22.4168 92.6518C24.7116 91.3269 27.6458 92.1132 28.9708 94.408C30.2957 96.7028 29.5095 99.637 27.2147 100.962C24.9198 102.287 21.9856 101.501 20.6607 99.2058C19.3359 96.911 20.1221 93.9768 22.4168 92.6518Z" stroke="#F5F9FF" stroke-width="3"/>
<defs>
<linearGradient id="paint0_linear_2097_455" x1="0" y1="0" x2="186.445" y2="186.445" gradientUnits="userSpaceOnUse">
<stop stop-color="#4ABEE2"/>
<stop offset="1" stop-color="#4989C8"/>
</linearGradient>
</defs>
</svg>
